<svg width="93" height="92" viewBox="0 0 93 92" fill="none" xmlns="http://www.w3.org/2000/svg">
<rect x="0.666504" width="92" height="92" rx="24" fill="white"/>
<g clip-path="url(#clip0_22728_11667)">
<path d="M75.1927 51.7273C74.5052 51.4426 73.7815 51.2982 73.0416 51.2982C71.4099 51.2982 69.9026 51.9946 68.856 53.1615L67.636 52.6562L64.1559 51.2147C64.6498 49.5616 64.9163 47.8113 64.9163 45.9998C64.9163 44.1883 64.6496 42.4381 64.1559 40.7849L67.636 39.3435L68.856 38.8381C69.9026 40.0051 71.4099 40.7014 73.0416 40.7014C73.7815 40.7014 74.5052 40.5571 75.1927 40.2722C78.0581 39.0852 79.4239 35.7883 78.2369 32.9227C77.3629 30.8128 75.3224 29.4493 73.0386 29.4493C72.2987 29.4493 71.575 29.5937 70.8875 29.8786C68.6292 30.814 67.3038 33.0598 67.4238 35.3722L66.1966 35.8805L62.7176 37.3215C61.0275 34.208 58.458 31.6383 55.3445 29.9483L56.7855 26.4694L57.2933 25.2436C57.3916 25.2487 57.4903 25.2517 57.5893 25.2517C59.8731 25.2517 61.9135 23.8884 62.7876 21.7784C63.9745 18.9129 62.6089 15.6159 59.7434 14.4289C59.0558 14.1444 58.3321 14 57.5923 14C55.3084 14 53.268 15.3634 52.3939 17.4734C51.4585 19.7316 52.1093 22.257 53.8293 23.8072L53.3228 25.0301L51.8813 28.5102C50.2282 28.0165 48.4779 27.7498 46.6664 27.7498C44.8549 27.7498 43.1047 28.0165 41.4516 28.5102L40.0101 25.0301L39.5036 23.8072C41.2236 22.257 41.8743 19.7316 40.9389 17.4732C40.0648 15.3634 38.0242 14 35.7404 14C35.0006 14 34.2768 14.1444 33.5893 14.4292C30.7239 15.6162 29.3582 18.9131 30.5452 21.7787C31.4192 23.8886 33.4597 25.2521 35.7434 25.2521C35.8424 25.2521 35.9411 25.2491 36.0394 25.244L36.5472 26.4697L37.9882 29.9487C34.8747 31.6388 32.3051 34.2083 30.6151 37.3218L27.1361 35.8808L25.909 35.3726C26.029 33.0602 24.7035 30.8143 22.4452 29.8788C21.7577 29.5941 21.034 29.4497 20.2941 29.4497C18.0102 29.4497 15.9698 30.8131 15.0957 32.9231C13.9089 35.7886 15.2745 39.0856 18.14 40.2726C18.8275 40.5573 19.5512 40.7017 20.2911 40.7017C21.9228 40.7017 23.4301 40.0053 24.4767 38.8383L25.6967 39.3437L29.1768 40.7852C28.683 42.4383 28.4165 44.1886 28.4165 46.0001C28.4165 47.8116 28.6831 49.5618 29.1768 51.2149L25.6966 52.6562L24.4766 53.1615C23.43 51.9946 21.9227 51.2982 20.291 51.2982C19.5511 51.2982 18.8273 51.4426 18.1398 51.7274C15.2745 52.9144 13.9087 56.2113 15.0957 59.0769C15.9697 61.1868 18.0102 62.5503 20.294 62.5503C21.0338 62.5503 21.7576 62.4059 22.4451 62.121C24.7033 61.1857 26.0288 58.9398 25.9088 56.6274L27.136 56.1192L30.6149 54.6782C32.3051 57.7917 34.8746 60.3613 37.9881 62.0513L36.5471 65.5303L36.0393 66.756C35.9409 66.7509 35.8423 66.7479 35.7433 66.7479C33.4594 66.7479 31.4191 68.1113 30.5449 70.2213C29.3581 73.0868 30.7237 76.3838 33.5892 77.5708C34.2767 77.8555 35.0004 77.9999 35.7403 77.9999C38.0242 77.9999 40.0646 76.6365 40.9387 74.5265C41.8741 72.2683 41.2233 69.7429 39.5033 68.1926L40.0098 66.9698L41.4513 63.4897C43.1044 63.9834 44.8547 64.25 46.6662 64.25C48.4777 64.25 50.2279 63.9834 51.881 63.4897L53.3225 66.9698L53.829 68.1926C52.109 69.7429 51.4583 72.2683 52.3937 74.5266C53.2677 76.6365 55.3082 78 57.5919 78C58.3318 78 59.0555 77.8556 59.743 77.5708C62.6084 76.3838 63.9741 73.0869 62.7871 70.2213C61.9131 68.1114 59.8726 66.7479 57.5889 66.7479C57.4899 66.7479 57.3913 66.7509 57.2929 66.756L56.7851 65.5303L55.3442 62.0513C58.4576 60.3612 61.0273 57.7917 62.7173 54.6782L66.1963 56.1192L67.4234 56.6274C67.3034 58.9398 68.6289 61.1857 70.8871 62.1212C71.5746 62.4059 72.2984 62.5503 73.0382 62.5503C75.3221 62.5503 77.3625 61.1869 78.2366 59.0769C79.4239 56.2113 78.0584 52.9143 75.1927 51.7273ZM46.6664 60.4998C38.6712 60.4998 32.1664 53.995 32.1664 45.9998C32.1664 38.0046 38.6712 31.4998 46.6664 31.4998C54.6617 31.4998 61.1664 38.0046 61.1664 45.9998C61.1664 53.995 54.6615 60.4998 46.6664 60.4998Z" fill="black"/>
<path d="M75.1927 51.7273C74.5052 51.4426 73.7815 51.2982 73.0416 51.2982C71.4099 51.2982 69.9026 51.9946 68.856 53.1615L67.636 52.6562L64.1559 51.2147C64.6498 49.5616 64.9163 47.8113 64.9163 45.9998C64.9163 44.1883 64.6496 42.4381 64.1559 40.7849L67.636 39.3435L68.856 38.8381C69.9026 40.0051 71.4099 40.7014 73.0416 40.7014C73.7815 40.7014 74.5052 40.5571 75.1927 40.2722C78.0581 39.0852 79.4239 35.7883 78.2369 32.9227C77.3629 30.8128 75.3224 29.4493 73.0386 29.4493C72.2987 29.4493 71.575 29.5937 70.8875 29.8786C68.6292 30.814 67.3038 33.0598 67.4238 35.3722L66.1966 35.8805L62.7176 37.3215C61.0275 34.208 58.458 31.6383 55.3445 29.9483L56.7855 26.4694L57.2933 25.2436C57.3916 25.2487 57.4903 25.2517 57.5893 25.2517C59.8731 25.2517 61.9135 23.8884 62.7876 21.7784C63.9745 18.9129 62.6089 15.6159 59.7434 14.4289C59.0558 14.1444 58.3321 14 57.5923 14C55.3084 14 53.268 15.3634 52.3939 17.4734C51.4585 19.7316 52.1093 22.257 53.8293 23.8072L53.3228 25.0301L51.8813 28.5102C50.2282 28.0165 48.4779 27.7498 46.6664 27.7498C44.8549 27.7498 43.1047 28.0165 41.4516 28.5102L40.0101 25.0301L39.5036 23.8072C41.2236 22.257 41.8743 19.7316 40.9389 17.4732C40.0648 15.3634 38.0242 14 35.7404 14C35.0006 14 34.2768 14.1444 33.5893 14.4292C30.7239 15.6162 29.3582 18.9131 30.5452 21.7787C31.4192 23.8886 33.4597 25.2521 35.7434 25.2521C35.8424 25.2521 35.9411 25.2491 36.0394 25.244L36.5472 26.4697L37.9882 29.9487C34.8747 31.6388 32.3051 34.2083 30.6151 37.3218L27.1361 35.8808L25.909 35.3726C26.029 33.0602 24.7035 30.8143 22.4452 29.8788C21.7577 29.5941 21.034 29.4497 20.2941 29.4497C18.0102 29.4497 15.9698 30.8131 15.0957 32.9231C13.9089 35.7886 15.2745 39.0856 18.14 40.2726C18.8275 40.5573 19.5512 40.7017 20.2911 40.7017C21.9228 40.7017 23.4301 40.0053 24.4767 38.8383L25.6967 39.3437L29.1768 40.7852C28.683 42.4383 28.4165 44.1886 28.4165 46.0001C28.4165 47.8116 28.6831 49.5618 29.1768 51.2149L25.6966 52.6562L24.4766 53.1615C23.43 51.9946 21.9227 51.2982 20.291 51.2982C19.5511 51.2982 18.8273 51.4426 18.1398 51.7274C15.2745 52.9144 13.9087 56.2113 15.0957 59.0769C15.9697 61.1868 18.0102 62.5503 20.294 62.5503C21.0338 62.5503 21.7576 62.4059 22.4451 62.121C24.7033 61.1857 26.0288 58.9398 25.9088 56.6274L27.136 56.1192L30.6149 54.6782C32.3051 57.7917 34.8746 60.3613 37.9881 62.0513L36.5471 65.5303L36.0393 66.756C35.9409 66.7509 35.8423 66.7479 35.7433 66.7479C33.4594 66.7479 31.4191 68.1113 30.5449 70.2213C29.3581 73.0868 30.7237 76.3838 33.5892 77.5708C34.2767 77.8555 35.0004 77.9999 35.7403 77.9999C38.0242 77.9999 40.0646 76.6365 40.9387 74.5265C41.8741 72.2683 41.2233 69.7429 39.5033 68.1926L40.0098 66.9698L41.4513 63.4897C43.1044 63.9834 44.8547 64.25 46.6662 64.25C48.4777 64.25 50.2279 63.9834 51.881 63.4897L53.3225 66.9698L53.829 68.1926C52.109 69.7429 51.4583 72.2683 52.3937 74.5266C53.2677 76.6365 55.3082 78 57.5919 78C58.3318 78 59.0555 77.8556 59.743 77.5708C62.6084 76.3838 63.9741 73.0869 62.7871 70.2213C61.9131 68.1114 59.8726 66.7479 57.5889 66.7479C57.4899 66.7479 57.3913 66.7509 57.2929 66.756L56.7851 65.5303L55.3442 62.0513C58.4576 60.3612 61.0273 57.7917 62.7173 54.6782L66.1963 56.1192L67.4234 56.6274C67.3034 58.9398 68.6289 61.1857 70.8871 62.1212C71.5746 62.4059 72.2984 62.5503 73.0382 62.5503C75.3221 62.5503 77.3625 61.1869 78.2366 59.0769C79.4239 56.2113 78.0584 52.9143 75.1927 51.7273ZM46.6664 60.4998C38.6712 60.4998 32.1664 53.995 32.1664 45.9998C32.1664 38.0046 38.6712 31.4998 46.6664 31.4998C54.6617 31.4998 61.1664 38.0046 61.1664 45.9998C61.1664 53.995 54.6615 60.4998 46.6664 60.4998Z" fill="url(#paint0_linear_22728_11667)"/>
<path d="M46.6665 35.25C40.739 35.25 35.9165 40.0725 35.9165 46C35.9165 51.9275 40.739 56.75 46.6665 56.75C52.594 56.75 57.4165 51.9275 57.4165 46C57.4165 40.0725 52.594 35.25 46.6665 35.25ZM48.5415 50.125H44.7915V41.875H48.5415V50.125Z" fill="black"/>
<path d="M46.6665 35.25C40.739 35.25 35.9165 40.0725 35.9165 46C35.9165 51.9275 40.739 56.75 46.6665 56.75C52.594 56.75 57.4165 51.9275 57.4165 46C57.4165 40.0725 52.594 35.25 46.6665 35.25ZM48.5415 50.125H44.7915V41.875H48.5415V50.125Z" fill="url(#paint1_linear_22728_11667)"/>
</g>
<defs>
<linearGradient id="paint0_linear_22728_11667" x1="46.6663" y1="14" x2="46.6663" y2="78" gradientUnits="userSpaceOnUse">
<stop stop-color="#EF8080"/>
<stop offset="1" stop-color="#F0145A"/>
</linearGradient>
<linearGradient id="paint1_linear_22728_11667" x1="46.6665" y1="35.25" x2="46.6665" y2="56.75" gradientUnits="userSpaceOnUse">
<stop stop-color="#EF8080"/>
<stop offset="1" stop-color="#F0145A"/>
</linearGradient>
<clipPath id="clip0_22728_11667">
<rect width="64" height="64" fill="white" transform="translate(14.6665 14)"/>
</clipPath>
</defs>
</svg>
