<svg width="93" height="92" viewBox="0 0 93 92" fill="none" xmlns="http://www.w3.org/2000/svg">
<rect x="0.666504" width="92" height="92" rx="24" fill="white"/>
<path d="M55.0187 34.389C55.7507 35.121 56.9367 35.123 57.6687 34.389L60.2767 31.781C61.0077 31.049 61.0057 29.863 60.2767 29.13L53.6937 22.549C52.9637 21.817 51.7777 21.817 51.0457 22.549L48.4367 25.157C47.7067 25.889 47.7067 27.075 48.4367 27.805L55.0187 34.389Z" fill="url(#paint0_linear_22728_11686)"/>
<path d="M39.4325 50.2652C40.1635 50.9942 41.3495 50.9942 42.0805 50.2652L44.6895 47.6553C45.4215 46.9253 45.4215 45.7383 44.6895 45.0063L38.1065 38.4233C37.3755 37.6933 36.1895 37.6913 35.4575 38.4233L32.8495 41.0312C32.1175 41.7632 32.1195 42.9492 32.8495 43.6812L39.4325 50.2652Z" fill="url(#paint1_linear_22728_11686)"/>
<path d="M69.3146 50.8912L66.6676 48.2412C65.9336 47.5112 64.7506 47.5112 64.0196 48.2412L62.8586 49.4012L51.6536 38.1942L54.0806 35.7662L47.3476 29.0352L44.9196 31.4632L41.8276 34.5532L39.4536 36.9272L46.1856 43.6602L48.5626 41.2872L59.7656 52.4922L58.7176 53.5412C57.9856 54.2702 57.9836 55.4572 58.7176 56.1892L61.3646 58.8372C62.0986 59.5712 63.2836 59.5712 64.0146 58.8372L69.3136 53.5402C70.0466 52.8072 70.0466 51.6232 69.3146 50.8912Z" fill="url(#paint2_linear_22728_11686)"/>
<path d="M49.7435 58.9425C49.7435 57.7435 48.7715 56.7695 47.5705 56.7695H30.6025C29.4025 56.7695 28.4295 57.7435 28.4295 58.9425V62.4695H23.6665V69.8585H54.2245V62.4695H49.7435V58.9425Z" fill="url(#paint3_linear_22728_11686)"/>
<defs>
<linearGradient id="paint0_linear_22728_11686" x1="54.3567" y1="22" x2="54.3567" y2="34.9388" gradientUnits="userSpaceOnUse">
<stop stop-color="#EF8080"/>
<stop offset="1" stop-color="#F0145A"/>
</linearGradient>
<linearGradient id="paint1_linear_22728_11686" x1="38.7699" y1="37.875" x2="38.7699" y2="50.812" gradientUnits="userSpaceOnUse">
<stop stop-color="#EF8080"/>
<stop offset="1" stop-color="#F0145A"/>
</linearGradient>
<linearGradient id="paint2_linear_22728_11686" x1="54.6586" y1="29.0352" x2="54.6586" y2="59.3877" gradientUnits="userSpaceOnUse">
<stop stop-color="#EF8080"/>
<stop offset="1" stop-color="#F0145A"/>
</linearGradient>
<linearGradient id="paint3_linear_22728_11686" x1="38.9455" y1="56.7695" x2="38.9455" y2="69.8585" gradientUnits="userSpaceOnUse">
<stop stop-color="#EF8080"/>
<stop offset="1" stop-color="#F0145A"/>
</linearGradient>
</defs>
</svg>
